<svg width="512" height="512" viewBox="0 0 512 512" fill="none" xmlns="http://www.w3.org/2000/svg">
<g clip-path="url(#clip0_3_5)">
<g clip-path="url(#clip1_3_5)">
<g filter="url(#filter0_dddddd_3_5)">
<circle cx="256" cy="256" r="212" fill="black"/>
</g>
<path d="M198.259 412H128.197V105.451H194.065V134.811C205.771 110.488 232.237 100 254.895 100C305.655 100 354.741 140.675 354.741 206.932C354.741 273.189 305.655 314.71 254.895 314.71C230.14 314.71 211.261 306.327 198.259 291.647V412ZM241.046 164.161C217.551 164.161 198.259 184.706 198.259 208.192C198.259 231.678 217.569 249.713 241.046 249.713C252.382 249.667 263.241 245.145 271.257 237.132C279.273 229.119 283.797 218.264 283.843 206.932C283.843 183.456 264.127 164.161 241.046 164.161Z" fill="white"/>
<path d="M359.935 330.321C383.007 330.321 402.308 347.096 402.308 370.582C402.308 394.482 382.997 411.68 359.935 411.68C337.277 411.68 318.407 394.491 318.407 370.582C318.407 347.096 337.258 330.321 359.935 330.321Z" fill="#15B8A6"/>
</g>
</g>
<defs>
<filter id="filter0_dddddd_3_5" x="-36" y="-40" width="584" height="584" filterUnits="userSpaceOnUse" color-interpolation-filters="sRGB">
<feFlood flood-opacity="0" result="BackgroundImageFix"/>
<feColorMatrix in="SourceAlpha" type="matrix" values="0 0 0 0 0 0 0 0 0 0 0 0 0 0 0 0 0 0 127 0" result="hardAlpha"/>
<feOffset dy="-0.11069"/>
<feGaussianBlur stdDeviation="1.1069"/>
<feColorMatrix type="matrix" values="0 0 0 0 0 0 0 0 0 0 0 0 0 0 0 0 0 0 0.07 0"/>
<feBlend mode="normal" in2="BackgroundImageFix" result="effect1_dropShadow_3_5"/>
<feColorMatrix in="SourceAlpha" type="matrix" values="0 0 0 0 0 0 0 0 0 0 0 0 0 0 0 0 0 0 127 0" result="hardAlpha"/>
<feOffset dy="-0.266004"/>
<feGaussianBlur stdDeviation="2.66004"/>
<feColorMatrix type="matrix" values="0 0 0 0 0 0 0 0 0 0 0 0 0 0 0 0 0 0 0.0503198 0"/>
<feBlend mode="normal" in2="effect1_dropShadow_3_5" result="effect2_dropShadow_3_5"/>
<feColorMatrix in="SourceAlpha" type="matrix" values="0 0 0 0 0 0 0 0 0 0 0 0 0 0 0 0 0 0 127 0" result="hardAlpha"/>
<feOffset dy="-0.500862"/>
<feGaussianBlur stdDeviation="5.00862"/>
<feColorMatrix type="matrix" values="0 0 0 0 0 0 0 0 0 0 0 0 0 0 0 0 0 0 0.0417275 0"/>
<feBlend mode="normal" in2="effect2_dropShadow_3_5" result="effect3_dropShadow_3_5"/>
<feColorMatrix in="SourceAlpha" type="matrix" values="0 0 0 0 0 0 0 0 0 0 0 0 0 0 0 0 0 0 127 0" result="hardAlpha"/>
<feOffset dy="-0.893452"/>
<feGaussianBlur stdDeviation="8.93452"/>
<feColorMatrix type="matrix" values="0 0 0 0 0 0 0 0 0 0 0 0 0 0 0 0 0 0 0.035 0"/>
<feBlend mode="normal" in2="effect3_dropShadow_3_5" result="effect4_dropShadow_3_5"/>
<feColorMatrix in="SourceAlpha" type="matrix" values="0 0 0 0 0 0 0 0 0 0 0 0 0 0 0 0 0 0 127 0" result="hardAlpha"/>
<feOffset dy="-1.6711"/>
<feGaussianBlur stdDeviation="16.711"/>
<feColorMatrix type="matrix" values="0 0 0 0 0 0 0 0 0 0 0 0 0 0 0 0 0 0 0.0282725 0"/>
<feBlend mode="normal" in2="effect4_dropShadow_3_5" result="effect5_dropShadow_3_5"/>
<feColorMatrix in="SourceAlpha" type="matrix" values="0 0 0 0 0 0 0 0 0 0 0 0 0 0 0 0 0 0 127 0" result="hardAlpha"/>
<feOffset dy="-4"/>
<feGaussianBlur stdDeviation="40"/>
<feColorMatrix type="matrix" values="0 0 0 0 0 0 0 0 0 0 0 0 0 0 0 0 0 0 0.0196802 0"/>
<feBlend mode="normal" in2="effect5_dropShadow_3_5" result="effect6_dropShadow_3_5"/>
<feBlend mode="normal" in="SourceGraphic" in2="effect6_dropShadow_3_5" result="shape"/>
</filter>
<clipPath id="clip0_3_5">
<rect width="512" height="512" fill="white"/>
</clipPath>
<clipPath id="clip1_3_5">
<rect width="512" height="512" fill="white"/>
</clipPath>
</defs>
</svg>
